Little Big Soldier 1080p.mkv
****************************

TiTLE......  Da bing xiao jiang
             Little Big Soldier (English title)
YEAR.......  2010
GENRE......  Action | Adventure | Comedy 
iMDB RATE..  User Rating: 7.1/10 (830 votes)
iMDB URL...  http://www.imdb.com/title/tt1319718/
**************************************************

Video
Duration                         : 1h 35mn
Bit rate                         : 5 702 Kbps
Width                            : 1 920 pixels
Height                           : 816 pixels
Display aspect ratio             : 2.35:1
Frame rate                       : 25.000 fps
Resolution                       : 24 bits
Stream size                      : 3.71 GiB (77%)


Audio
Format                           : DTS
Format/Info                      : Digital Theater Systems
Duration                         : 1h 35mn
Bit rate                         : 1 510 Kbps
Channel(s)                       : 6 channels
Channel positions                : Front: L C R, Surround: L R, LFE
Sampling rate                    : 48.0 KHz
Resolution                       : 24 bits
Stream size                      : 1.01 GiB (21%)
Language                         : Chinese (Mandarin)

Subtitles: English, Finnish, Portuguese
***************************************
